<svg width="69" height="56" viewBox="0 0 69 56" fill="none" xmlns="http://www.w3.org/2000/svg">
<path opacity="0.75" d="M21.2947 14.7425C22.3668 14.7425 23.2359 13.9047 23.2359 12.8713C23.2359 11.8378 22.3668 11 21.2947 11C20.2226 11 19.3535 11.8378 19.3535 12.8713C19.3535 13.9047 20.2226 14.7425 21.2947 14.7425Z" fill="white"/>
<path opacity="0.75" d="M27.6472 14.7425C28.7193 14.7425 29.5884 13.9047 29.5884 12.8713C29.5884 11.8378 28.7193 11 27.6472 11C26.5752 11 25.7061 11.8378 25.7061 12.8713C25.7061 13.9047 26.5752 14.7425 27.6472 14.7425Z" fill="white"/>
<path opacity="0.75" d="M33.9998 14.7425C35.0719 14.7425 35.941 13.9047 35.941 12.8713C35.941 11.8378 35.0719 11 33.9998 11C32.9277 11 32.0586 11.8378 32.0586 12.8713C32.0586 13.9047 32.9277 14.7425 33.9998 14.7425Z" fill="white"/>
<path opacity="0.75" d="M40.3533 14.7425C41.4254 14.7425 42.2945 13.9047 42.2945 12.8713C42.2945 11.8378 41.4254 11 40.3533 11C39.2812 11 38.4121 11.8378 38.4121 12.8713C38.4121 13.9047 39.2812 14.7425 40.3533 14.7425Z" fill="white"/>
<path opacity="0.75" d="M46.7058 14.7425C47.7779 14.7425 48.647 13.9047 48.647 12.8713C48.647 11.8378 47.7779 11 46.7058 11C45.6337 11 44.7646 11.8378 44.7646 12.8713C44.7646 13.9047 45.6337 14.7425 46.7058 14.7425Z" fill="white"/>
<path opacity="0.75" d="M14.9412 20.867C16.0133 20.867 16.8824 20.0293 16.8824 18.9958C16.8824 17.9623 16.0133 17.1245 14.9412 17.1245C13.8691 17.1245 13 17.9623 13 18.9958C13 20.0293 13.8691 20.867 14.9412 20.867Z" fill="white"/>
<path opacity="0.75" d="M21.2947 20.867C22.3668 20.867 23.2359 20.0293 23.2359 18.9958C23.2359 17.9623 22.3668 17.1245 21.2947 17.1245C20.2226 17.1245 19.3535 17.9623 19.3535 18.9958C19.3535 20.0293 20.2226 20.867 21.2947 20.867Z" fill="white"/>
<path opacity="0.75" d="M27.6472 20.867C28.7193 20.867 29.5884 20.0293 29.5884 18.9958C29.5884 17.9623 28.7193 17.1245 27.6472 17.1245C26.5752 17.1245 25.7061 17.9623 25.7061 18.9958C25.7061 20.0293 26.5752 20.867 27.6472 20.867Z" fill="white"/>
<path opacity="0.75" d="M33.9998 20.867C35.0719 20.867 35.941 20.0293 35.941 18.9958C35.941 17.9623 35.0719 17.1245 33.9998 17.1245C32.9277 17.1245 32.0586 17.9623 32.0586 18.9958C32.0586 20.0293 32.9277 20.867 33.9998 20.867Z" fill="white"/>
<path opacity="0.75" d="M40.3533 20.867C41.4254 20.867 42.2945 20.0293 42.2945 18.9958C42.2945 17.9623 41.4254 17.1245 40.3533 17.1245C39.2812 17.1245 38.4121 17.9623 38.4121 18.9958C38.4121 20.0293 39.2812 20.867 40.3533 20.867Z" fill="white"/>
<path opacity="0.75" d="M46.7058 20.867C47.7779 20.867 48.647 20.0293 48.647 18.9958C48.647 17.9623 47.7779 17.1245 46.7058 17.1245C45.6337 17.1245 44.7646 17.9623 44.7646 18.9958C44.7646 20.0293 45.6337 20.867 46.7058 20.867Z" fill="white"/>
<path opacity="0.75" d="M53.0584 20.867C54.1305 20.867 54.9996 20.0293 54.9996 18.9958C54.9996 17.9623 54.1305 17.1245 53.0584 17.1245C51.9863 17.1245 51.1172 17.9623 51.1172 18.9958C51.1172 20.0293 51.9863 20.867 53.0584 20.867Z" fill="white"/>
<path opacity="0.75" d="M14.9412 26.9911C16.0133 26.9911 16.8824 26.1533 16.8824 25.1198C16.8824 24.0863 16.0133 23.2485 14.9412 23.2485C13.8691 23.2485 13 24.0863 13 25.1198C13 26.1533 13.8691 26.9911 14.9412 26.9911Z" fill="white"/>
<path opacity="0.75" d="M21.2947 26.9911C22.3668 26.9911 23.2359 26.1533 23.2359 25.1198C23.2359 24.0863 22.3668 23.2485 21.2947 23.2485C20.2226 23.2485 19.3535 24.0863 19.3535 25.1198C19.3535 26.1533 20.2226 26.9911 21.2947 26.9911Z" fill="white"/>
<path opacity="0.75" d="M27.6472 26.9911C28.7193 26.9911 29.5884 26.1533 29.5884 25.1198C29.5884 24.0863 28.7193 23.2485 27.6472 23.2485C26.5752 23.2485 25.7061 24.0863 25.7061 25.1198C25.7061 26.1533 26.5752 26.9911 27.6472 26.9911Z" fill="white"/>
<path opacity="0.75" d="M33.9998 26.9911C35.0719 26.9911 35.941 26.1533 35.941 25.1198C35.941 24.0863 35.0719 23.2485 33.9998 23.2485C32.9277 23.2485 32.0586 24.0863 32.0586 25.1198C32.0586 26.1533 32.9277 26.9911 33.9998 26.9911Z" fill="white"/>
<path opacity="0.75" d="M40.3533 26.9911C41.4254 26.9911 42.2945 26.1533 42.2945 25.1198C42.2945 24.0863 41.4254 23.2485 40.3533 23.2485C39.2812 23.2485 38.4121 24.0863 38.4121 25.1198C38.4121 26.1533 39.2812 26.9911 40.3533 26.9911Z" fill="white"/>
<path opacity="0.75" d="M46.7058 26.9911C47.7779 26.9911 48.647 26.1533 48.647 25.1198C48.647 24.0863 47.7779 23.2485 46.7058 23.2485C45.6337 23.2485 44.7646 24.0863 44.7646 25.1198C44.7646 26.1533 45.6337 26.9911 46.7058 26.9911Z" fill="white"/>
<path opacity="0.75" d="M53.0584 26.9911C54.1305 26.9911 54.9996 26.1533 54.9996 25.1198C54.9996 24.0863 54.1305 23.2485 53.0584 23.2485C51.9863 23.2485 51.1172 24.0863 51.1172 25.1198C51.1172 26.1533 51.9863 26.9911 53.0584 26.9911Z" fill="white"/>
<path opacity="0.75" d="M14.9412 33.1151C16.0133 33.1151 16.8824 32.2773 16.8824 31.2438C16.8824 30.2104 16.0133 29.3726 14.9412 29.3726C13.8691 29.3726 13 30.2104 13 31.2438C13 32.2773 13.8691 33.1151 14.9412 33.1151Z" fill="white"/>
<path opacity="0.75" d="M21.2947 33.1151C22.3668 33.1151 23.2359 32.2773 23.2359 31.2438C23.2359 30.2104 22.3668 29.3726 21.2947 29.3726C20.2226 29.3726 19.3535 30.2104 19.3535 31.2438C19.3535 32.2773 20.2226 33.1151 21.2947 33.1151Z" fill="white"/>
<path opacity="0.75" d="M27.6472 33.1151C28.7193 33.1151 29.5884 32.2773 29.5884 31.2438C29.5884 30.2104 28.7193 29.3726 27.6472 29.3726C26.5752 29.3726 25.7061 30.2104 25.7061 31.2438C25.7061 32.2773 26.5752 33.1151 27.6472 33.1151Z" fill="white"/>
<path opacity="0.75" d="M33.9998 33.1151C35.0719 33.1151 35.941 32.2773 35.941 31.2438C35.941 30.2104 35.0719 29.3726 33.9998 29.3726C32.9277 29.3726 32.0586 30.2104 32.0586 31.2438C32.0586 32.2773 32.9277 33.1151 33.9998 33.1151Z" fill="white"/>
<path opacity="0.75" d="M40.3533 33.1151C41.4254 33.1151 42.2945 32.2773 42.2945 31.2438C42.2945 30.2104 41.4254 29.3726 40.3533 29.3726C39.2812 29.3726 38.4121 30.2104 38.4121 31.2438C38.4121 32.2773 39.2812 33.1151 40.3533 33.1151Z" fill="white"/>
<path opacity="0.75" d="M46.7058 33.1151C47.7779 33.1151 48.647 32.2773 48.647 31.2438C48.647 30.2104 47.7779 29.3726 46.7058 29.3726C45.6337 29.3726 44.7646 30.2104 44.7646 31.2438C44.7646 32.2773 45.6337 33.1151 46.7058 33.1151Z" fill="white"/>
<path opacity="0.75" d="M53.0584 33.1151C54.1305 33.1151 54.9996 32.2773 54.9996 31.2438C54.9996 30.2104 54.1305 29.3726 53.0584 29.3726C51.9863 29.3726 51.1172 30.2104 51.1172 31.2438C51.1172 32.2773 51.9863 33.1151 53.0584 33.1151Z" fill="white"/>
<path opacity="0.75" d="M14.9412 39.2391C16.0133 39.2391 16.8824 38.4013 16.8824 37.3678C16.8824 36.3344 16.0133 35.4966 14.9412 35.4966C13.8691 35.4966 13 36.3344 13 37.3678C13 38.4013 13.8691 39.2391 14.9412 39.2391Z" fill="white"/>
<path opacity="0.75" d="M21.2947 39.2391C22.3668 39.2391 23.2359 38.4013 23.2359 37.3678C23.2359 36.3344 22.3668 35.4966 21.2947 35.4966C20.2226 35.4966 19.3535 36.3344 19.3535 37.3678C19.3535 38.4013 20.2226 39.2391 21.2947 39.2391Z" fill="white"/>
<path opacity="0.75" d="M27.6472 39.2391C28.7193 39.2391 29.5884 38.4013 29.5884 37.3678C29.5884 36.3344 28.7193 35.4966 27.6472 35.4966C26.5752 35.4966 25.7061 36.3344 25.7061 37.3678C25.7061 38.4013 26.5752 39.2391 27.6472 39.2391Z" fill="white"/>
<path opacity="0.75" d="M33.9998 39.2391C35.0719 39.2391 35.941 38.4013 35.941 37.3678C35.941 36.3344 35.0719 35.4966 33.9998 35.4966C32.9277 35.4966 32.0586 36.3344 32.0586 37.3678C32.0586 38.4013 32.9277 39.2391 33.9998 39.2391Z" fill="white"/>
<path opacity="0.75" d="M40.3533 39.2391C41.4254 39.2391 42.2945 38.4013 42.2945 37.3678C42.2945 36.3344 41.4254 35.4966 40.3533 35.4966C39.2812 35.4966 38.4121 36.3344 38.4121 37.3678C38.4121 38.4013 39.2812 39.2391 40.3533 39.2391Z" fill="white"/>
<path opacity="0.75" d="M46.7058 39.2391C47.7779 39.2391 48.647 38.4013 48.647 37.3678C48.647 36.3344 47.7779 35.4966 46.7058 35.4966C45.6337 35.4966 44.7646 36.3344 44.7646 37.3678C44.7646 38.4013 45.6337 39.2391 46.7058 39.2391Z" fill="white"/>
<path opacity="0.75" d="M53.0584 39.2391C54.1305 39.2391 54.9996 38.4013 54.9996 37.3678C54.9996 36.3344 54.1305 35.4966 53.0584 35.4966C51.9863 35.4966 51.1172 36.3344 51.1172 37.3678C51.1172 38.4013 51.9863 39.2391 53.0584 39.2391Z" fill="white"/>
<path opacity="0.75" d="M21.2947 45.3631C22.3668 45.3631 23.2359 44.5253 23.2359 43.4919C23.2359 42.4584 22.3668 41.6206 21.2947 41.6206C20.2226 41.6206 19.3535 42.4584 19.3535 43.4919C19.3535 44.5253 20.2226 45.3631 21.2947 45.3631Z" fill="white"/>
<path opacity="0.75" d="M27.6472 45.3631C28.7193 45.3631 29.5884 44.5253 29.5884 43.4919C29.5884 42.4584 28.7193 41.6206 27.6472 41.6206C26.5752 41.6206 25.7061 42.4584 25.7061 43.4919C25.7061 44.5253 26.5752 45.3631 27.6472 45.3631Z" fill="white"/>
<path opacity="0.75" d="M33.9998 45.3631C35.0719 45.3631 35.941 44.5253 35.941 43.4919C35.941 42.4584 35.0719 41.6206 33.9998 41.6206C32.9277 41.6206 32.0586 42.4584 32.0586 43.4919C32.0586 44.5253 32.9277 45.3631 33.9998 45.3631Z" fill="white"/>
<path opacity="0.75" d="M40.3533 45.3631C41.4254 45.3631 42.2945 44.5253 42.2945 43.4919C42.2945 42.4584 41.4254 41.6206 40.3533 41.6206C39.2812 41.6206 38.4121 42.4584 38.4121 43.4919C38.4121 44.5253 39.2812 45.3631 40.3533 45.3631Z" fill="white"/>
<path opacity="0.75" d="M46.7058 45.3631C47.7779 45.3631 48.647 44.5253 48.647 43.4919C48.647 42.4584 47.7779 41.6206 46.7058 41.6206C45.6337 41.6206 44.7646 42.4584 44.7646 43.4919C44.7646 44.5253 45.6337 45.3631 46.7058 45.3631Z" fill="white"/>
</svg>
